<svg xmlns="http://www.w3.org/2000/svg" version="1.1" xmlns:xlink="http://www.w3.org/1999/xlink" xmlns:svgjs="http://svgjs.dev/svgjs" width="1000" height="260" viewBox="0 0 1000 260"><g transform="matrix(1,0,0,1,0.6506750924247058,0.7004945816531745)"><svg viewBox="0 0 238 62" data-background-color="#ffffff" preserveAspectRatio="xMidYMid meet" height="260" width="1000" xmlns="http://www.w3.org/2000/svg" xmlns:xlink="http://www.w3.org/1999/xlink"><g id="tight-bounds" transform="matrix(1,0,0,1,-0.15486067199708486,-0.16704101562498863)"><svg viewBox="0 0 238.30972134399417 62.33408203125" height="62.33408203125" width="238.30972134399417"><g><svg viewBox="0 0 238.30972134399417 62.33408203125" height="62.33408203125" width="238.30972134399417"><g><svg viewBox="0 0 238.30972134399417 62.33408203125" height="62.33408203125" width="238.30972134399417"><g id="textblocktransform"><svg viewBox="0 0 238.30972134399417 62.33408203125" height="62.33408203125" width="238.30972134399417" id="textblock"><g><svg viewBox="0 0 238.30972134399417 62.33408203125" height="62.33408203125" width="238.30972134399417"><g><svg><g></g><g></g></svg></g><g><svg><g><svg></svg></g><g></g></svg></g><g id="text-0"><svg viewBox="0 0 238.30972134399417 62.33408203125" height="62.33408203125" width="238.30972134399417"><g transform="matrix(1,0,0,1,0,6.411181640624999)"><svg width="116.04003906250003" viewBox="4.42 -38.16 116.03 38.529999999999994" height="38.525390625" data-palette-color="#336a86"><path d="M10.79 0L4.42 0Q4.57-0.83 4.57-1.81L4.57-1.81 4.57-32.47 9.45-32.47 22.39-12.11 22.39-30.81Q22.39-32.15 22.14-32.47L22.14-32.47 28.74-32.47Q28.61-31.49 28.61-30.32L28.61-30.32 28.61 0 23.54 0 10.79-19.56 10.79 0ZM34.91-12.62L34.91-12.62Q34.91-15.31 35.83-17.76 36.74-20.21 38.45-22.05L38.45-22.05Q42.19-26 48.14-26L48.14-26Q54.07-26 57.57-22.27L57.57-22.27Q60.91-18.7 60.91-13.01L60.91-13.01Q60.91-7.32 57.47-3.59L57.47-3.59Q53.83 0.37 47.82 0.37L47.82 0.37Q41.62 0.37 38.11-3.52L38.11-3.52Q34.91-7.06 34.91-12.62ZM40.84-12.77L40.84-12.77Q40.84-11.23 41.35-9.79 41.87-8.35 42.82-7.32L42.82-7.32Q44.85-5.1 48.14-5.1L48.14-5.1Q51.19-5.1 52.95-7.28L52.95-7.28Q54.66-9.38 54.66-12.74L54.66-12.74Q54.66-16.16 52.9-18.26L52.9-18.26Q51.02-20.51 47.75-20.51L47.75-20.51Q44.43-20.51 42.55-18.12L42.55-18.12Q40.84-15.92 40.84-12.77ZM64.13-12.62L64.13-12.62Q64.13-15.31 65.05-17.76 65.96-20.21 67.67-22.05L67.67-22.05Q71.41-26 77.36-26L77.36-26Q83.3-26 86.79-22.27L86.79-22.27Q90.13-18.7 90.13-13.01L90.13-13.01Q90.13-7.32 86.69-3.59L86.69-3.59Q83.05 0.37 77.05 0.37L77.05 0.37Q70.84 0.37 67.33-3.52L67.33-3.52Q64.13-7.06 64.13-12.62ZM70.06-12.77L70.06-12.77Q70.06-11.23 70.58-9.79 71.09-8.35 72.04-7.32L72.04-7.32Q74.07-5.1 77.36-5.1L77.36-5.1Q80.41-5.1 82.17-7.28L82.17-7.28Q83.88-9.38 83.88-12.74L83.88-12.74Q83.88-16.16 82.12-18.26L82.12-18.26Q80.24-20.51 76.97-20.51L76.97-20.51Q73.65-20.51 71.77-18.12L71.77-18.12Q70.06-15.92 70.06-12.77ZM100.97-17.77L100.97-2.73Q100.97-0.63 101.07 0L101.07 0 94.99 0 94.99-25.51 100.97-25.51 100.97-23.63Q103.04-26 105.33-26 107.61-26 108.93-25.44L108.93-25.44 108.49-18.87 108.39-18.8Q107.54-20.31 104.85-20.31L104.85-20.31Q103.83-20.31 102.76-19.62 101.7-18.92 100.97-17.77L100.97-17.77ZM116.62-28.83L111.12-32.79Q113.08-35.84 115.2-38.16L115.2-38.16 120.45-34.03Q119.4-32.74 118.5-31.49L118.5-31.49Q118.5-31.49 116.62-28.83L116.62-28.83ZM117.54-25.51L117.54-2.73Q117.54-0.63 117.64 0L117.64 0 111.44 0 111.44-25.51 117.54-25.51Z" opacity="1" transform="matrix(1,0,0,1,0,0)" fill="#336a86" class="undefined-yy-0"></path></svg></g><g><svg xmlns="http://www.w3.org/2000/svg" xmlns:xlink="http://www.w3.org/1999/xlink" version="1.1" x="130.75673828125002" y="0" viewBox="2.755 0 26.49 32" enable-background="new 0 0 32 32" xml:space="preserve" height="62.33408203125" width="51.60093228149414" class="icon-cg-0" data-fill-palette-color="accent" id="cg-0"><g display="none" fill="#283132" data-fill-palette-color="accent"><g display="inline" fill="#283132" data-fill-palette-color="accent"><g fill="#283132" data-fill-palette-color="accent"><polygon fill="#283132" points="22.556,0 29.245,6.689 29.245,32 5.08,32 5.08,0    " data-fill-palette-color="accent"></polygon></g><g fill="#283132" data-fill-palette-color="accent"><polygon fill="#283132" points="29.245,6.689 22.555,6.689 22.555,0    " data-fill-palette-color="accent"></polygon></g><g fill="#283132" data-fill-palette-color="accent"><g fill="#283132" data-fill-palette-color="accent"><rect x="2.755" y="18.313" fill="#283132" width="24.093" height="8.118" data-fill-palette-color="accent"></rect></g><g fill="#283132" data-fill-palette-color="accent"><polygon fill="#283132" points="5.08,28.755 5.08,26.431 2.755,26.431     " data-fill-palette-color="accent"></polygon></g></g></g><g display="inline" fill="#283132" data-fill-palette-color="accent"><path fill="#283132" d="M15.037 23.891h-2.125l-0.307 0.944h-0.988l1.638-4.922h1.403l1.662 4.922H15.35L15.037 23.891zM14.82 23.201l-0.852-2.563-0.836 2.563H14.82z" data-fill-palette-color="accent"></path><path fill="#283132" d="M17.68 19.913v4.922h-0.934v-4.922H17.68z" data-fill-palette-color="accent"></path></g></g><g fill="#283132" data-fill-palette-color="accent"><g fill="#283132" data-fill-palette-color="accent"><path d="M13.255 19.374l-1.638 4.922h0.988l0.307-0.944h2.125l0.312 0.944h0.971l-1.662-4.922H13.255zM13.133 22.662l0.836-2.563 0.852 2.563H13.133z" fill="#283132" data-fill-palette-color="accent"></path><rect x="16.746" y="19.374" width="0.934" height="4.922" fill="#283132" data-fill-palette-color="accent"></rect><path d="M5.08 28.755v-2.324h0V32h24.165V6.689L22.556 0H5.08v17.313H2.755v9.118h0L5.08 28.755zM23.055 2.414l3.776 3.775h-3.776V2.414zM6.08 1h15.974v6.189h6.19V31H6.08v-4.569h20.768v-9.118H6.08V1zM3.755 18.313h22.093v7.118H3.755V18.313z" fill="#283132" data-fill-palette-color="accent"></path></g></g></svg></g><g transform="matrix(1,0,0,1,197.07436978149414,14.565478515625)"><svg width="41.2353515625" viewBox="-0.27 -32.67 41.230000000000004 32.870000000000005" height="32.861328125" data-palette-color="#336a86"><path d="M8.86-7.03L6.57 0.2Q4.47 0 1.66 0L1.66 0-0.27 0 10.35-29.76Q11.06-31.76 11.06-32.09 11.06-32.42 11.04-32.5L11.04-32.5 11.06-32.54Q12.65-32.47 14.43-32.47L14.43-32.47Q15.89-32.47 17.94-32.52L17.94-32.52 17.97-32.47Q17.92-32.37 17.92-32.2L17.92-32.2Q17.92-31.74 18.65-29.74L18.65-29.74 29.49 0.07Q29 0.05 28.34 0.05L28.34 0.05Q28.34 0.05 27.08 0L27.08 0Q26.46 0 25.98 0L25.98 0 22.19 0 19.9-7.03 8.86-7.03ZM10.72-12.89L17.99-12.89 14.31-24.24 10.72-12.89ZM34.18 0L34.18-32.57Q36.62-32.47 37.13-32.47L37.13-32.47 38.89-32.47Q40.18-32.47 40.96-32.67L40.96-32.67 40.94 0 34.18 0Z" opacity="1" transform="matrix(1,0,0,1,0,0)" fill="#336a86" class="undefined-yy-1"></path></svg></g></svg></g></svg></g></svg></g></svg></g></svg></g><defs></defs></svg><rect width="238.30972134399417" height="62.33408203125" fill="none" stroke="none" visibility="hidden"></rect></g></svg></g></svg>